# xmcd
#
# Track frame offsets: 
#        150
#        10166
#        26206
#        39686
#        54689
#        67430
#        83916
#        96470
#        110317
#        125414
#        138138
#        153875
#        164228
#        179418
#        195018
#        218601
#        236009
#
# Disc length: 4519 seconds
#
# Revision: 2
# Processed by: cddbd v1.5.2PL0 Copyright (c) Steve Scherf et al.
# Submitted via: ExactAudioCopy v0.95b4
#
DISCID=ef11a511
DTITLE=Carolina Chocolate Drops - Heritage
DYEAR=2007
DGENRE=Old Time String Band
TTITLE0=Another Man Done Gone
TTITLE1=Wayward Gal
TTITLE2=Don't Get Trouble in Your Mind
TTITLE3=Black Eye Blues
TTITLE4=Georgie Buck
TTITLE5=Earl King
TTITLE6=Jack o' Diamonds
TTITLE7=Short Life of Trouble
TTITLE8=Po' Lazarus
TTITLE9=Rickett's Hornpipe 
TTITLE10=Cornbread and Butter Beans
TTITLE11=Bye-Bye Policeman
TTITLE12=Real Old Mountain Dew
TTITLE13=Sittin' on Top of the World
TTITLE14=Banjo Dreams, Jalidong
TTITLE15=Gambia
TTITLE16=Bonus data
EXTD=YEAR: 2007
EXTT0=
EXTT1=
EXTT2=
EXTT3=
EXTT4=
EXTT5=
EXTT6=
EXTT7=
EXTT8=
EXTT9=
EXTT10=
EXTT11=
EXTT12=
EXTT13=
EXTT14=
EXTT15=
EXTT16=
PLAYORDER=
